# xmcd
#
# Track frame offsets:
#	150
#	11829
#	23320
#	35107
#	48785
#	60437
#	75167
#	84740
#	96982
#	111816
#	124657
#	137120
#	151311
#
# Disc length: 2196 seconds
#
# Revision: 1
# Processed by: cddbd v1.5.2PL0 Copyright (c) Steve Scherf et al.
# Submitted via: audiograbber 1.83.01
#
DISCID=9608920d
DTITLE=Don Williams and The Pozo-Seco Singers - Follow Me Back Home
DYEAR=2002
DGENRE=Country
TTITLE0=Storybook Children
TTITLE1=Always Something There To Remind Me
TTITLE2=Comin' Apart
TTITLE3=Ruby Tuesday
TTITLE4=Spend Some Time With Me
TTITLE5=There's No Angel On My Shoulder
TTITLE6=In My Life
TTITLE7=Follow Me Back To Louisville
TTITLE8=Long Walk From Childhood
TTITLE9=There's Never Been A Time
TTITLE10=On Her Way To Being A Woman
TTITLE11=Ordinary
TTITLE12=Where Do I Go From Here
EXTD=
EXTT0=
EXTT1=
EXTT2=
EXTT3=
EXTT4=
EXTT5=
EXTT6=
EXTT7=
EXTT8=
EXTT9=
EXTT10=
EXTT11=
EXTT12=
PLAYORDER=
